<svg width="49" height="49" viewBox="0 0 49 49" fill="none" xmlns="http://www.w3.org/2000/svg">
<path d="M39.4473 0H9.56122C4.28071 0 0 4.28071 0 9.56122V39.4473C0 44.7278 4.28071 49.0085 9.56122 49.0085H39.4473C44.7278 49.0085 49.0085 44.7278 49.0085 39.4473V9.56122C49.0085 4.28071 44.7278 0 39.4473 0Z" fill="#028174"/>
<path d="M18.5742 21.0214C18.6365 20.2713 18.695 19.5211 18.7593 18.771C18.8528 17.6721 18.2195 16.6394 17.2122 16.2536C16.1834 15.862 15.0358 16.1893 14.3734 17.0642C13.7128 17.939 13.7187 19.1237 14.3889 20.0121C15.0475 20.885 16.1815 21.2007 17.2278 20.8013C17.8123 20.5791 18.0461 20.7603 18.0033 21.3838C17.9117 22.7049 17.8162 24.0239 17.7461 25.3469C17.6818 26.5296 18.3793 27.5272 19.4841 27.8799C20.5752 28.2287 21.7267 27.798 22.3483 26.7849C22.8704 25.9373 23.3731 25.078 23.8797 24.2207C24.0297 23.9655 24.1915 23.7239 24.5363 23.8798C24.8539 24.0239 24.8072 24.2889 24.7312 24.5656C24.0512 27.0849 23.377 29.6042 22.697 32.1236C22.3892 33.2634 22.81 34.3584 23.8076 34.9546C24.8559 35.5801 26.5198 35.3404 27.2524 34.0486C29.4795 30.1342 31.7475 26.2432 33.9979 22.3425C34.4947 21.4813 35.0052 20.6259 35.4865 19.753C35.9931 18.8333 35.8801 17.7753 35.2274 16.994C34.5785 16.2186 33.5303 15.9029 32.5561 16.2049C31.8975 16.4095 31.4338 16.8479 31.0928 17.4422C29.271 20.6103 27.4414 23.7726 25.6138 26.9368C25.5359 27.0732 25.4735 27.2213 25.3216 27.2993C25.1618 27.3811 25.0156 27.3538 24.8773 27.2525C24.6922 27.118 24.6766 26.9329 24.7292 26.7303C24.9455 25.9217 25.1618 25.1131 25.38 24.3045C25.8282 22.6425 26.2704 20.9766 26.7322 19.3185C27.0849 18.0559 26.5296 16.8323 25.3372 16.3043C24.1973 15.7977 22.8997 16.201 22.2314 17.2999C21.3234 18.7944 20.4388 20.3005 19.5425 21.8027C19.4685 21.9274 19.3983 22.056 19.3107 22.1729C19.1938 22.3327 19.0379 22.4048 18.8333 22.3386C18.6346 22.2743 18.5254 22.1359 18.5293 21.9333C18.5352 21.6293 18.5625 21.3273 18.58 21.0234C18.5761 21.0234 18.5722 21.0234 18.5683 21.0234L18.5742 21.0214Z" fill="#92DE8B"/>
<path d="M17.6718 21.5478C17.7342 20.7976 17.7926 20.0475 17.8569 19.2974C17.9505 18.1985 17.3172 17.1658 16.3099 16.78C15.2811 16.3884 14.1335 16.7157 13.471 17.5905C12.8105 18.4654 12.8163 19.65 13.4866 20.5385C14.1452 21.4114 15.2792 21.727 16.3255 21.3276C16.91 21.1055 17.1438 21.2867 17.1009 21.9102C17.0094 23.2312 16.9139 24.5503 16.8437 25.8733C16.7794 27.056 17.477 28.0536 18.5817 28.4062C19.6729 28.755 20.8244 28.3244 21.4459 27.3112C21.9681 26.4637 22.4708 25.6044 22.9774 24.7471C23.1274 24.4919 23.2891 24.2503 23.634 24.4061C23.9516 24.5503 23.9048 24.8153 23.8288 25.092C23.1488 27.6113 22.4747 30.1306 21.7947 32.6499C21.4868 33.7897 21.9077 34.8848 22.9053 35.481C23.9535 36.1064 25.6175 35.8668 26.3501 34.575C28.5772 30.6606 30.8451 26.7696 33.0956 22.8688C33.5924 22.0076 34.1029 21.1523 34.5842 20.2794C35.0907 19.3597 34.9777 18.3017 34.325 17.5204C33.6762 16.7449 32.6279 16.4293 31.6537 16.7313C30.9951 16.9359 30.5314 17.3743 30.1904 17.9685C28.3687 21.1367 26.5391 24.299 24.7115 27.4632C24.6335 27.5996 24.5712 27.7477 24.4192 27.8256C24.2594 27.9075 24.1133 27.8802 23.975 27.7789C23.7899 27.6444 23.7743 27.4593 23.8269 27.2567C24.0432 26.4481 24.2594 25.6395 24.4777 24.8309C24.9258 23.1689 25.3681 21.503 25.8299 19.8449C26.1825 18.5823 25.6272 17.3587 24.4348 16.8307C23.295 16.3241 21.9973 16.7274 21.329 17.8263C20.421 19.3207 19.5365 20.8269 18.6402 22.3291C18.5662 22.4538 18.496 22.5824 18.4083 22.6993C18.2914 22.8591 18.1356 22.9312 17.931 22.8649C17.7322 22.8006 17.6231 22.6623 17.627 22.4597C17.6328 22.1557 17.6601 21.8537 17.6777 21.5497C17.6738 21.5497 17.6699 21.5497 17.666 21.5497L17.6718 21.5478Z" fill="#028174"/>
<path d="M17.145 21.5478C17.2073 20.7976 17.2658 20.0475 17.3301 19.2974C17.4236 18.1985 16.7903 17.1658 15.783 16.78C14.7542 16.3884 13.6066 16.7157 12.9442 17.5905C12.2836 18.4654 12.2895 19.65 12.9597 20.5385C13.6183 21.4114 14.7523 21.727 15.7986 21.3276C16.3831 21.1055 16.6169 21.2867 16.5741 21.9102C16.4825 23.2312 16.387 24.5503 16.3169 25.8733C16.2526 27.056 16.9501 28.0536 18.0549 28.4062C19.146 28.755 20.2975 28.3244 20.9191 27.3112C21.4412 26.4637 21.9439 25.6044 22.4505 24.7471C22.6005 24.4919 22.7623 24.2503 23.1071 24.4061C23.4247 24.5503 23.378 24.8153 23.302 25.092C22.622 27.6113 21.9478 30.1306 21.2678 32.6499C20.96 33.7897 21.3808 34.8848 22.3784 35.481C23.4267 36.1064 25.0906 35.8668 25.8232 34.575C28.0503 30.6606 30.3183 26.7696 32.5687 22.8688C33.0655 22.0076 33.576 21.1523 34.0573 20.2794C34.5639 19.3597 34.4509 18.3017 33.7982 17.5204C33.1493 16.7449 32.1011 16.4293 31.1269 16.7313C30.4683 16.9359 30.0046 17.3743 29.6636 17.9685C27.8418 21.1367 26.0122 24.299 24.1846 27.4632C24.1067 27.5996 24.0443 27.7477 23.8924 27.8256C23.7326 27.9075 23.5864 27.8802 23.4481 27.7789C23.263 27.6444 23.2474 27.4593 23.3 27.2567C23.5163 26.4481 23.7326 25.6395 23.9508 24.8309C24.399 23.1689 24.8412 21.503 25.303 19.8449C25.6557 18.5823 25.1004 17.3587 23.908 16.8307C22.7681 16.3241 21.4705 16.7274 20.8022 17.8263C19.8942 19.3207 19.0096 20.8269 18.1133 22.3291C18.0393 22.4538 17.9691 22.5824 17.8815 22.6993C17.7646 22.8591 17.6087 22.9312 17.4041 22.8649C17.2054 22.8006 17.0962 22.6623 17.1001 22.4597C17.106 22.1557 17.1333 21.8537 17.1508 21.5497C17.1469 21.5497 17.143 21.5497 17.1391 21.5497L17.145 21.5478Z" fill="white"/>
</svg>
