<svg width="208" height="46" viewBox="0 0 208 46" fill="none" xmlns="http://www.w3.org/2000/svg">
<path d="M11.1219 11.7016C11.2661 9.92223 11.4102 8.14283 11.5634 6.36793C11.7841 3.76414 10.284 1.31352 7.89644 0.403547C5.45483 -0.52895 2.73394 0.250385 1.16627 2.32711C-0.401409 4.40383 -0.387915 7.20582 1.20229 9.31408C2.76095 11.3818 5.4503 12.1296 7.93246 11.1836C9.31994 10.6565 9.87407 11.0845 9.77046 12.5621C9.54972 15.6929 9.32899 18.8238 9.15781 21.9546C9.00465 24.7566 10.6624 27.1216 13.2797 27.9595C15.8655 28.7884 18.5954 27.7658 20.073 25.3648C21.3118 23.3556 22.501 21.3194 23.7038 19.2877C24.0597 18.6841 24.4427 18.112 25.258 18.4769C26.0103 18.8147 25.8977 19.4499 25.722 20.1031C24.1093 26.072 22.5101 32.0499 20.9018 38.0188C20.1721 40.7217 21.1721 43.3164 23.5372 44.7264C26.0238 46.2085 29.9655 45.6409 31.7044 42.5821C36.984 33.3022 42.3583 24.0764 47.6965 14.828C48.8768 12.7828 50.0841 10.7556 51.2238 8.69242C52.4266 6.51208 52.1563 4.0029 50.6066 2.15142C49.066 0.308948 46.5838 -0.434349 44.2774 0.277413C42.7142 0.763933 41.6195 1.80005 40.8087 3.21005C36.4885 10.7196 32.1504 18.2156 27.8212 25.7161C27.6365 26.036 27.4879 26.3918 27.1275 26.5765C26.7491 26.7702 26.4022 26.7027 26.0734 26.4684C25.6364 26.1531 25.5958 25.7116 25.7265 25.2296C26.24 23.3105 26.7491 21.396 27.2672 19.477C28.3303 15.5352 29.3799 11.589 30.4746 7.65631C31.308 4.6606 29.9971 1.764 27.1681 0.511665C24.4652 -0.686617 21.3884 0.268403 19.8072 2.86768C17.6584 6.40847 15.5546 9.98079 13.4329 13.5396C13.2572 13.8369 13.0905 14.1432 12.8833 14.418C12.604 14.7964 12.2346 14.9676 11.7526 14.81C11.2841 14.6568 11.0228 14.3324 11.0318 13.8504C11.0453 13.1297 11.1084 12.4134 11.1534 11.6971C11.1444 11.6971 11.1354 11.6971 11.1264 11.6971L11.1219 11.7016Z" fill="#92DE8B"/>
<path d="M107.062 39.0017H100.034L95.6511 20.9779L94.3267 15.4099L93.7005 12.698L93.0744 9.91406H92.9347L92.3086 12.698L91.6824 15.482L90.3624 20.9779L85.9793 39.0017H78.8121L69.9736 6.50391H74.983L79.5779 24.5277L80.9699 30.1632L81.6636 32.9472L82.3574 35.7312H82.497L83.1232 32.9472L83.817 30.1632L85.1369 24.5277L89.5921 6.50391H96.5521L100.935 24.5277L102.327 30.1632L102.953 32.9472L103.58 35.7312H103.719L104.413 32.9472L105.107 30.1632L106.499 24.5277L111.094 6.50391H116.175L107.057 39.0017H107.062Z" fill="#028174"/>
<path d="M116.874 15.6219C117.013 7.82852 119.45 6.01758 129.816 6.01758C140.182 6.01758 143.317 8.59434 143.317 17.5679V39.0019H138.587L138.934 35.5241L138.866 35.4566C136.848 38.5198 134.136 39.4929 127.802 39.4929C118.757 39.4929 115.554 36.9161 115.554 29.6093C115.554 25.8523 116.738 22.5097 118.545 21.1898C120.284 19.8654 123.487 19.2392 128.01 19.2392C131.487 19.2392 134.271 19.6582 136.222 20.424C137.335 20.8429 137.821 21.3295 138.447 22.5818L138.587 22.5142V18.6176C138.587 11.0314 137.267 9.71153 130.095 9.71153C123.554 9.71153 121.604 10.8242 121.604 14.5812V15.6264H116.874V15.6219ZM120.491 28.8435C120.491 34.2718 121.951 35.4566 128.703 35.4566C132.947 35.4566 135.943 34.8304 137.402 33.5781C138.375 32.8122 138.794 31.4923 138.794 29.4742C138.794 24.5324 136.708 23.0728 129.609 23.0728C122.023 23.0728 120.491 24.0459 120.491 28.848V28.8435Z" fill="#028174"/>
<path d="M152.29 6.5041L152.222 10.9594L152.29 11.0269C153.821 7.47714 157.02 6.01758 163.146 6.01758C168.507 6.01758 172.052 7.40957 173.724 10.1935C174.557 11.5855 174.836 13.3965 174.836 17.8472V39.0019H170.106V18.2617C170.106 14.7839 169.967 13.8064 169.34 12.5541C168.507 10.7431 166.489 10.0494 162.453 10.0494C155.285 10.0494 152.501 12.6937 152.501 19.4419V38.9973H147.56V6.4996H152.29V6.5041Z" fill="#028174"/>
<path d="M207.127 22.8566C207.127 36.7044 204.69 39.4884 192.721 39.4884C180.752 39.4884 178.387 36.7044 178.387 22.5097C178.387 8.31504 180.891 6.01758 192.793 6.01758C204.695 6.01758 207.127 8.80156 207.127 22.8566ZM184.716 12.2117C183.743 13.8109 183.324 16.7345 183.324 22.5818C183.324 34.2718 184.157 35.4566 192.717 35.4566C201.276 35.4566 202.181 34.2042 202.181 22.789C202.181 11.3738 201.276 10.0539 192.789 10.0539C187.986 10.0539 185.689 10.6801 184.716 12.2117Z" fill="#028174"/>
</svg>
